<svg viewBox="0 0 400 160" xmlns="http://www.w3.org/2000/svg" aria-label="Particle model: solid, liquid, gas">
  <rect x="24" y="35" width="95" height="90" rx="4" fill="rgba(100,116,139,0.08)" stroke="#334155" stroke-width="1.5"/>
  <g fill="#475569" stroke="#334155" stroke-width="0.8"><circle cx="50" cy="58" r="6"/><circle cx="75" cy="55" r="6"/><circle cx="95" cy="62" r="6"/><circle cx="58" cy="78" r="6"/><circle cx="82" cy="82" r="6"/><circle cx="68" cy="98" r="6"/></g>
  <text x="71" y="142" fill="#1e293b" font-size="12" font-weight="600" text-anchor="middle" font-family="system-ui,sans-serif">Solid</text>
  <rect x="152" y="35" width="95" height="90" rx="4" fill="rgba(14,165,233,0.06)" stroke="#334155" stroke-width="1.5"/>
  <g fill="#0ea5e9" stroke="#0369a1" stroke-width="0.8"><circle cx="175" cy="58" r="6"/><circle cx="205" cy="62" r="6"/><circle cx="225" cy="55" r="6"/><circle cx="188" cy="82" r="6"/><circle cx="218" cy="88" r="6"/><circle cx="200" cy="100" r="6"/></g>
  <text x="199" y="142" fill="#1e293b" font-size="12" font-weight="600" text-anchor="middle" font-family="system-ui,sans-serif">Liquid</text>
  <rect x="280" y="35" width="95" height="90" rx="4" fill="rgba(99,102,241,0.06)" stroke="#334155" stroke-width="1.5"/>
  <g fill="#4f46e5" stroke="#4338ca" stroke-width="0.8"><circle cx="298" cy="52" r="5"/><circle cx="328" cy="68" r="5"/><circle cx="310" cy="95" r="5"/><circle cx="342" cy="88" r="5"/><circle cx="295" cy="75" r="5"/><circle cx="355" cy="62" r="5"/></g>
  <text x="327" y="142" fill="#1e293b" font-size="12" font-weight="600" text-anchor="middle" font-family="system-ui,sans-serif">Gas</text>
  <text x="200" y="158" fill="#64748b" font-size="10" text-anchor="middle" font-family="system-ui,sans-serif">Fixed → touching → far apart; kinetic energy increases</text>
</svg>
